<?xml version="1.0" encoding="UTF-8"?>
<svg id="Layer_1" data-name="Layer 1" xmlns="http://www.w3.org/2000/svg" viewBox="0 0 792.05 387.8">
  <path d="M397.26,387.79c-9.11-.14-18.24-.05-27.34-.47-14.12-.65-28.25-1.37-42.34-2.56-13.77-1.16-27.52-2.73-41.23-4.5-15.46-1.99-30.8-4.74-46.07-7.91-20.67-4.28-41.09-9.49-61.21-15.88-28.01-8.9-55.15-19.88-80.91-34.12-18.4-10.16-35.73-21.84-51.29-36.04-14.46-13.21-26.81-28.07-35.55-45.73-5.75-11.64-9.5-23.89-10.8-36.82-1.97-19.56,1.56-38.17,9.94-55.9,6.66-14.09,15.75-26.47,26.47-37.71,16.87-17.69,36.57-31.67,57.75-43.66,25.27-14.31,51.97-25.32,79.54-34.27,29.7-9.64,60.01-16.72,90.81-21.8,15.62-2.58,31.3-4.67,47.06-6.25,15.59-1.57,31.2-2.65,46.85-3.36,16.06-.73,32.13-1,48.2-.69,13.66,.26,27.31,.93,40.95,1.71,10.53,.6,21.05,1.43,31.53,2.57,12.63,1.38,25.24,3.02,37.81,4.88,17.16,2.53,34.18,5.89,51.07,9.86,35.25,8.28,69.57,19.29,102.42,34.63,22.09,10.31,43.1,22.41,62.27,37.56,14.57,11.51,27.62,24.49,38.14,39.88,9.45,13.82,16.2,28.8,19.12,45.35,3.41,19.35,1.34,38.18-5.88,56.45-5.58,14.12-13.73,26.67-23.59,38.15-12.06,14.04-26.11,25.84-41.33,36.28-22.78,15.64-47.41,27.76-73.06,37.84-31.46,12.37-63.91,21.35-97.04,27.98-18.67,3.74-37.45,6.77-56.36,8.91-12.7,1.44-25.45,2.54-38.19,3.55-19.21,1.52-38.46,2.13-57.74,2.05Zm.04-8.53v-.6c5.69,0,11.36,.11,17.04-.03,9.03-.22,18.05-.52,27.07-.94,16.61-.79,33.17-2.24,49.68-4.18,18.26-2.15,36.42-4.93,54.46-8.49,24.4-4.82,48.47-10.91,72.09-18.73,25.38-8.4,50.01-18.58,73.39-31.62,20.77-11.57,40.11-25.08,56.7-42.26,10.62-11,19.67-23.11,26.14-37.04,6.82-14.68,9.98-30.07,9.07-46.28-.86-15.29-5.4-29.46-12.77-42.78-7.91-14.27-18.36-26.5-30.29-37.53-13.39-12.38-28.22-22.78-43.95-31.92-27.56-16.01-56.87-27.97-87.21-37.52-23.11-7.27-46.62-12.97-70.43-17.47-17.44-3.29-34.98-5.95-52.61-7.87-11.52-1.25-23.07-2.19-34.63-3.09-15.46-1.21-30.95-1.83-46.46-1.86-11.99-.02-23.99,.13-35.98,.36-7.27,.14-14.53,.52-21.79,.93-19.16,1.07-38.25,2.89-57.27,5.42-16.72,2.22-33.34,4.98-49.85,8.42-24.27,5.04-48.2,11.37-71.63,19.5-26.87,9.31-52.83,20.61-77.2,35.38-17.86,10.83-34.42,23.28-48.7,38.61-10.64,11.43-19.58,24.01-25.63,38.51-7.97,19.1-9.76,38.74-5.03,58.91,3.27,13.96,9.54,26.55,17.79,38.2,10.07,14.21,22.38,26.24,36.04,36.95,18.14,14.23,38,25.62,58.82,35.41,29.67,13.95,60.62,24.26,92.4,32.2,25.53,6.38,51.37,11.11,77.47,14.49,17.69,2.29,35.42,4.09,53.22,5.03,16.67,.88,33.37,1.28,50.06,1.9Z" fill="#182c4e"/>
  <path d="M397.3,379.26c-16.69-.61-33.39-1.02-50.06-1.9-17.8-.94-35.54-2.74-53.22-5.03-26.1-3.38-51.94-8.11-77.47-14.49-31.77-7.94-62.72-18.25-92.4-32.2-20.82-9.78-40.68-21.18-58.82-35.41-13.66-10.71-25.97-22.74-36.04-36.95-8.25-11.65-14.52-24.24-17.79-38.2-4.73-20.17-2.93-39.81,5.03-58.91,6.05-14.49,14.99-27.07,25.63-38.51,14.27-15.33,30.84-27.79,48.7-38.61,24.37-14.77,50.33-26.07,77.2-35.38,23.43-8.12,47.36-14.45,71.63-19.5,16.51-3.43,33.13-6.19,49.85-8.42,19.02-2.53,38.11-4.36,57.27-5.42,7.26-.4,14.53-.78,21.79-.93,11.99-.24,23.98-.38,35.98-.36,15.51,.03,31,.65,46.46,1.86,11.55,.9,23.11,1.84,34.63,3.09,17.64,1.92,35.17,4.58,52.61,7.87,23.81,4.49,47.32,10.19,70.43,17.47,30.34,9.55,59.65,21.51,87.21,37.52,15.73,9.14,30.57,19.54,43.95,31.92,11.93,11.03,22.38,23.27,30.29,37.53,7.38,13.32,11.92,27.49,12.77,42.78,.91,16.21-2.25,31.6-9.07,46.28-6.47,13.93-15.51,26.04-26.14,37.04-16.59,17.18-35.93,30.69-56.7,42.26-23.39,13.03-48.01,23.21-73.39,31.62-23.62,7.82-47.69,13.91-72.09,18.73-18.04,3.56-36.2,6.35-54.46,8.49-16.51,1.94-33.07,3.39-49.68,4.18-9.02,.43-18.04,.72-27.07,.94-5.67,.14-11.35,.03-17.02,.03v.6Zm-.01-7.63v.31c8.23-.17,16.47-.23,24.7-.54,10.3-.39,20.59-.9,30.88-1.51,16.04-.95,32.01-2.68,47.94-4.75,14.35-1.87,28.63-4.19,42.82-6.97,23.38-4.59,46.47-10.38,69.14-17.74,23.44-7.62,46.27-16.74,68.08-28.29,20.79-11,40.31-23.84,57.35-40.2,9.68-9.3,18.18-19.55,24.89-31.2,7.45-12.93,12.07-26.77,12.88-41.73,.86-15.76-2.69-30.62-9.63-44.7-6.83-13.85-16.29-25.77-27.26-36.53-9.38-9.21-19.68-17.31-30.57-24.66-18.15-12.25-37.5-22.25-57.63-30.79-37.62-15.95-76.78-26.62-116.89-34.05-15.09-2.8-30.25-5.21-45.52-6.79-13.51-1.4-27.04-2.67-40.57-3.76-15.22-1.23-30.48-1.55-45.74-1.77-6.79-.1-13.59-.02-20.38,.2-12.86,.41-25.71,.86-38.56,1.5-14.13,.7-28.2,2.14-42.25,3.8-16.67,1.97-33.25,4.52-49.75,7.67-28.29,5.41-56.12,12.58-83.31,22.1-25.41,8.9-49.94,19.7-73.01,33.65-17.73,10.72-34.19,23.06-48.27,38.37-9.98,10.85-18.3,22.79-23.9,36.5-5.6,13.71-7.92,27.92-6.3,42.67,1.6,14.54,6.7,27.88,14.37,40.28,8.18,13.24,18.56,24.6,30.26,34.79,16.92,14.74,35.8,26.52,55.75,36.68,21.34,10.87,43.56,19.57,66.36,26.83,21.11,6.72,42.55,12.13,64.27,16.49,17.17,3.45,34.44,6.26,51.82,8.38,10.07,1.23,20.18,2.13,30.29,3.11,15.28,1.47,30.6,2.15,45.93,2.61,7.27,.22,14.55,.04,21.83,.04Z" fill="#fafafb"/>
  <path d="M397.3,371.63c-7.28,0-14.56,.18-21.83-.04-15.33-.46-30.66-1.13-45.93-2.61-10.1-.97-20.21-1.87-30.29-3.11-17.38-2.12-34.65-4.93-51.82-8.38-21.72-4.36-43.16-9.77-64.27-16.49-22.8-7.26-45.02-15.96-66.36-26.83-19.94-10.16-38.82-21.94-55.75-36.68-11.7-10.19-22.07-21.54-30.26-34.79-7.66-12.4-12.77-25.73-14.37-40.28-1.62-14.75,.7-28.97,6.3-42.67,5.6-13.71,13.93-25.66,23.9-36.5,14.08-15.31,30.55-27.64,48.27-38.37,23.07-13.95,47.6-24.75,73.01-33.65,27.2-9.52,55.02-16.69,83.31-22.1,16.49-3.15,33.07-5.7,49.75-7.67,14.05-1.66,28.12-3.1,42.25-3.8,12.85-.64,25.7-1.09,38.56-1.5,6.79-.21,13.59-.29,20.38-.2,15.26,.22,30.52,.55,45.74,1.77,13.54,1.09,27.06,2.36,40.57,3.76,15.27,1.58,30.43,3.99,45.52,6.79,40.1,7.43,79.27,18.1,116.89,34.05,20.13,8.54,39.48,18.54,57.63,30.79,10.89,7.35,21.19,15.45,30.57,24.66,10.97,10.77,20.43,22.68,27.26,36.53,6.94,14.09,10.49,28.95,9.63,44.7-.82,14.96-5.43,28.8-12.88,41.73-6.71,11.66-15.21,21.91-24.89,31.2-17.04,16.36-36.56,29.19-57.35,40.2-21.81,11.54-44.64,20.67-68.08,28.29-22.67,7.36-45.75,13.15-69.14,17.74-14.2,2.79-28.47,5.1-42.82,6.97-15.93,2.08-31.9,3.81-47.94,4.75-10.29,.61-20.58,1.12-30.88,1.51-8.23,.31-16.46,.37-24.69,.54v-.31Zm108.85-50.95l.58,.49c-2.05,3.96-5.68,6.36-9.14,9.03,1.29,1.49,2.47,2.85,3.69,4.26,3.15-2.38,5.93-4.78,8.29-7.61,4.07-4.87,5.34-10.44,3.96-16.6-1.34-5.94-6.28-9.34-12.31-8.42-8.75,1.34-11.5,8.69-8.28,15.68,1.14,2.47,3.09,3.99,5.83,4.49,2.64,.48,5.08,.04,7.37-1.32Zm-75.12-111.73c-.57-.94-.91-1.47-1.22-2.02-5.33-9.38-10.66-18.75-15.98-28.13-2.76-4.86-5.51-9.73-8.29-14.58-.38-.66-.57-1.55-1.63-1.53-1.41,.02-2.82,0-4.37,0-.55,21.46-1.36,42.71-1.86,64.09,2.08,0,3.83,0,5.58,0,1.8-.01,3.6-.05,5.54-.07,0-11.73,.04-23.16,.19-34.59,.17-.03,.34-.06,.51-.08,6.38,11.77,12.76,23.54,19.09,35.22h4.12c6.36-11.94,12.71-23.87,19.05-35.79,.15,.04,.31,.09,.46,.13,.1,11.69,.21,23.37,.31,35.13h11.12c-.57-21.4-1.13-42.67-1.69-63.93h-5.1c-8.56,15.3-17.09,30.54-25.83,46.15Zm85.53,19.07c1.24-.06,2.44-.08,3.63-.19,9.95-.98,18.22-5.12,24.27-13.22,5.67-7.6,7.19-16.24,5.81-25.43-1.06-7.09-4.17-13.25-9.52-18.08-9.47-8.57-20.74-10.86-32.84-7.92-25.06,6.1-32.29,34.43-18.56,52.17,6.84,8.84,16.29,12.46,27.21,12.67ZM247.43,162.61v63.75c.5,.04,.89,.1,1.29,.1,7.99,0,15.99,.1,23.98-.05,2.77-.05,5.59-.44,8.28-1.1,15.59-3.8,25.6-17.3,24.52-32.97-.59-8.6-3.96-15.89-10.54-21.55-6.19-5.32-13.53-7.75-21.57-8.07-5.43-.22-10.87-.09-16.3-.11-3.11-.01-6.22,0-9.65,0Zm130.03,64.07c0-.96,0-1.82,0-2.68,0-11.59,.04-23.18-.03-34.77-.02-2.62-.25-5.28-.75-7.85-1.86-9.52-7.17-16.07-16.81-18.57-5.34-1.38-10.77-1.48-16.17-.48-9.95,1.84-16,7.84-18.26,17.63-.57,2.48-.98,5.05-1.01,7.58-.13,12.55-.11,25.09-.13,37.64,0,.44,.14,.88,.21,1.31h11.21v-14.86h30.36v15.04h11.4Zm225.65-20.25c2.02-1.77,4.15-3.25,5.78-5.16,4.92-5.77,6.37-12.56,5.21-19.96-.74-4.72-2.79-8.81-6.42-12.01-4.19-3.7-9.22-5.5-14.68-5.7-7.74-.29-15.5-.21-23.25-.27-.31,0-.61,.11-1.11,.2-.39,21.15-.1,42.26-.2,63.55,2.18,0,4.01,0,5.84,0,1.79,0,3.59-.03,5.48-.05,0-3.3,0-6.25,0-9.2s0-6.02,0-9.14c2.81,0,5.3,.24,7.72-.06,2.63-.33,4.28,.86,5.67,2.73,.9,1.21,1.69,2.52,2.48,3.81,.87,1.43,1.64,2.93,2.54,4.35,4.47,7.07,12.27,9.88,20.66,7.32,0-3.23,.06-6.53-.03-9.95-.72,0-1.12-.03-1.5,0-4.18,.4-7.22-1.49-9.64-4.69-1.49-1.97-3.04-3.88-4.52-5.76Zm46.39-14.71v-17.81c10.09-.22,20.04,.41,30.08,0-.02-3.61,.04-6.93-.04-10.3h-41.45v63.61h41.19v-10.3c-10.06-.12-19.94,.1-29.81-.13v-15.01h27.12v-10.04h-27.1Zm-430.59-29.06c0,.91,0,1.69,0,2.47,0,11.03,0,22.06,0,33.09,0,3.12-.09,6.23-1.05,9.25-1.55,4.9-4.71,8.18-9.83,9.08-2.48,.44-5.1,.51-7.61,.27-5.55-.54-9.41-3.54-10.91-8.97-.73-2.66-1.1-5.5-1.12-8.26-.07-11.43,.05-22.85,.1-34.28,0-.86,0-1.71,0-2.53-3.11-.45-9.72-.34-11.35,.15-.02,.23-.06,.46-.06,.7-.03,12.23-.06,24.46-.08,36.69,0,3.69,.42,7.33,1.5,10.88,2.35,7.69,7.35,12.82,15.1,15.03,6.43,1.84,12.97,1.83,19.42,.09,7.07-1.9,12.12-6.26,14.92-13.09,1.53-3.75,2.23-7.69,2.26-11.7,.1-12.39,.09-24.78,.11-37.17,0-.53-.09-1.07-.15-1.7h-11.26Zm-63.09,13.18c1.21-2.99,2.46-6.07,3.78-9.33-1.23-.59-2.26-1.17-3.36-1.6-7.72-3.03-15.69-4.3-23.96-3.3-16.71,2.02-29.42,15.79-29.72,32.05-.24,13.09,6.8,24.75,18.75,30.09,8.93,3.99,18.21,4.48,27.68,2.34,3.74-.85,7.36-2.05,10.76-4.17-1.15-3.22-2.26-6.34-3.41-9.56-.7,.27-1.22,.44-1.72,.66-4.65,2.07-9.53,3.2-14.61,3.48-5.31,.3-10.36-.57-14.95-3.4-7.96-4.9-11.85-14.46-9.69-23.92,1.8-7.89,6.58-13.14,14.24-15.74,4.56-1.55,9.27-1.94,13.95-.98,4.04,.83,7.97,2.17,12.25,3.37Zm-106.65,35.24c-1.26,3.27-2.51,6.52-3.79,9.85,.53,.36,.9,.65,1.31,.87,5.31,2.93,10.95,4.84,17.04,5.21,5.81,.35,11.47-.22,16.76-3,10.65-5.58,11.61-21.44,2.84-27.99-1.97-1.48-4.04-2.89-6.24-4-2.99-1.5-6.18-2.59-9.22-4-2.24-1.04-4.52-2.09-6.51-3.51-3.34-2.38-3.78-6.38-1.37-9.73,1.23-1.71,2.97-2.61,4.96-3.11,2.71-.67,5.44-.5,8.06,.27,3.18,.94,6.28,2.17,9.64,3.35,1.14-3.12,2.33-6.37,3.46-9.48-.29-.36-.36-.54-.49-.6-7.47-3.66-15.29-5.11-23.5-3.33-5.55,1.2-9.99,4.18-12.83,9.23-3.36,5.97-3.87,15.51,4.51,21.56,1.1,.79,2.23,1.59,3.45,2.15,3.19,1.47,6.47,2.72,9.64,4.22,2.73,1.29,5.57,2.52,7.97,4.3,4.07,3.03,3.54,8.94-.9,11.4-1.49,.83-3.27,1.31-4.97,1.57-3.62,.56-7.21,.03-10.61-1.23-3.04-1.13-5.97-2.58-9.22-4.01Zm652.75,11.1c.29,.36,.37,.52,.49,.6,8.92,5.16,18.43,7.18,28.57,4.9,7.57-1.7,14.12-6.39,14.69-16.54,.26-4.64-.91-8.85-4.3-12.28-2.63-2.66-5.77-4.55-9.13-6.08-2.91-1.32-5.93-2.39-8.83-3.73-2.02-.94-4.04-1.97-5.81-3.29-2.62-1.94-3.2-4.61-2.09-7.71,.98-2.74,3.06-4.2,5.77-4.89,3.37-.86,6.7-.38,9.92,.65,2.63,.85,5.18,1.98,7.9,3.03,1.18-3.25,2.36-6.52,3.56-9.8-.62-.38-1-.67-1.43-.86-6.07-2.82-12.46-4.07-19.12-3.47-5.78,.52-10.83,2.7-14.62,7.29-5.15,6.23-6.4,17.8,3.04,24.27,1.9,1.3,3.94,2.44,6.03,3.41,2.6,1.22,5.37,2.08,7.96,3.3,2.37,1.12,4.8,2.27,6.87,3.84,3.81,2.91,3.5,8.24-.4,11.05-1.6,1.15-3.42,1.72-5.35,1.93-5.51,.59-10.63-.75-15.53-3.15-1.42-.7-2.79-1.5-4.36-2.35-1.31,3.37-2.57,6.62-3.85,9.9Zm-123.11,74.62c-.07,8.72,6.83,15.79,15.49,15.89,9.26,.1,17.15-7.05,17.07-15.83-.07-9.2-6.73-15.91-15.34-15.95-9.56-.04-17.15,6.93-17.23,15.89Zm-28.93-205.66c-2.69,.65-5.76,.49-8.38-.39-5.11-1.72-8.05-6.4-7.25-11.52,.87-5.59,4.94-8.97,10.67-8.96,2.98,0,5.63,1.01,8.14,2.49,.67,.39,1.33,.78,2.1,1.22,.94-1.44,1.8-2.75,2.77-4.22-5.2-3.64-10.64-5.71-16.8-4.49-6.53,1.29-10.96,5.24-12.44,11.81-1.43,6.39,.36,11.97,5.81,15.87,5.7,4.08,12.06,4.7,18.74,2.79,.95-.27,1.43-.8,1.61-1.82,.58-3.22,1.27-6.42,1.9-9.62,.12-.59,.15-1.21,.23-1.95-4.49-.9-8.84-1.77-13.36-2.67-.32,1.65-.6,3.1-.92,4.77,2.84,.62,5.51,1.21,8.22,1.81-.39,1.87-.71,3.41-1.02,4.89Zm-209.64-26.51c2.52,2.23,4.65,4.12,6.77,6.02,3.99,3.57,7.97,7.14,11.96,10.71,.75,.67,1.49,1.48,2.72,.73-.57-10.08-1.13-20.1-1.7-30.34-1.85,.09-3.55,.18-5.45,.27,.34,6.39,.67,12.48,1.03,18.98-.83-.69-1.38-1.11-1.89-1.58-5.62-5.21-11.25-10.42-16.85-15.67-.86-.8-1.63-1.23-2.74-.4,.56,10.01,1.13,20.02,1.69,29.97h5.47c-.33-6.18-.66-12.17-1.01-18.69Zm158.49,23.63c1.18-10.1,2.35-20.13,3.54-30.28-1.99-.21-3.64-.38-5.42-.57-.76,6.29-1.48,12.34-2.26,18.8-.7-.8-1.12-1.24-1.49-1.72-4.6-6.04-9.19-12.09-13.77-18.15-.65-.86-1.26-1.66-2.83-1.37-1.17,10-2.36,20.09-3.55,30.26,1.98,.22,3.62,.4,5.41,.6,.75-6.15,1.47-12.09,2.25-18.47,.92,1.16,1.52,1.9,2.12,2.65,4.41,5.58,8.81,11.17,13.23,16.75,.63,.79,1.12,1.84,2.78,1.5Zm-209.68,244.43c1.62-10.03,3.22-19.99,4.85-30.09-1.94-.31-3.56-.56-5.38-.85-1.03,6.23-2.03,12.31-3.11,18.9-1.58-2.26-2.86-4.06-4.12-5.88-3.41-4.93-6.81-9.86-10.21-14.79-.64-.93-1.22-1.92-2.8-1.38-1.6,9.9-3.21,19.87-4.83,29.93,1.93,.31,3.56,.57,5.39,.86,1-6.08,1.98-11.98,3.03-18.36,.89,1.21,1.45,1.97,2,2.73,4.21,5.83,8.42,11.65,12.63,17.48,.55,.76,.97,1.72,2.55,1.46Zm-11.07-273.4c.82,6.39,1.56,12.48,2.43,18.54,.22,1.56,.72,3.12,1.37,4.56,1.48,3.26,4.02,5.25,7.59,5.95,2.75,.54,5.41,.23,8.04-.54,5.34-1.57,8.3-5.39,8.2-10.95-.05-3.02-.51-6.03-.87-9.04-.46-3.86-1.01-7.71-1.55-11.79-1.87,.25-3.56,.47-5.31,.71,.03,.51,.03,.82,.07,1.13,.59,4.67,1.22,9.33,1.76,14,.22,1.89,.42,3.82,.32,5.71-.14,2.74-1.69,4.59-4.34,5.39-.83,.25-1.71,.43-2.58,.49-3.46,.24-5.64-1.2-6.74-4.48-.33-.98-.55-2-.7-3.02-.4-2.84-.72-5.7-1.1-8.54-.38-2.9-.78-5.8-1.18-8.82-1.88,.24-3.52,.45-5.41,.69Zm94.87,250.17c-.18,9.99-.36,20.01-.54,30.15,6.77,.13,13.26,.26,19.79,.38v-5.16h-14.03v-7.17h12.89v-4.87h-12.64v-8.39h14.22v-4.94h-19.7ZM228.66,68.32c2.18,10.34,4.22,20.18,6.44,30.07,1.93-.43,3.54-.79,5.28-1.18-.58-2.86-1.13-5.56-1.72-8.46,.74-.2,1.42-.34,2.08-.56,2.1-.72,4.32-1.22,6.27-2.24,4.64-2.43,6.26-6.66,4.88-11.96-1.27-4.87-4.88-7.97-9.89-7.67-4.34,.26-8.64,1.27-13.33,2.01Zm118.99,241.62c-6.84-3.48-13.55-4.97-20.5-1.11-8.18,4.54-10.44,15.34-4.89,22.79,1.62,2.16,3.69,3.76,6.16,4.81,5.64,2.39,11.28,2.37,17.09,0-.48-1.68-.9-3.16-1.35-4.77-3.09,1-5.97,1.5-8.96,1.25-5.56-.46-9.68-4.49-10-9.82-.33-5.66,3.1-9.98,8.77-11.08,2.35-.46,4.62-.16,6.84,.62,1.49,.52,2.95,1.13,4.51,1.74,.74-1.41,1.44-2.74,2.33-4.44Zm-167.43-5.96c3.98,4.31,8.49,6.96,14.36,6.84,6.25-.12,10.24-7.78,6.41-12.8-1.34-1.76-3.04-3.25-4.61-4.84-.9-.91-1.91-1.7-2.76-2.65-1.02-1.14-1.52-2.43-.67-3.94,.76-1.35,2.08-1.99,3.86-1.8,2.17,.24,3.85,1.46,5.48,2.77,.59,.48,1.16,.99,1.83,1.57,1.11-1.41,2.08-2.65,3.11-3.97-3.1-3.23-6.71-5.21-11.03-5.4-3.7-.16-6.75,1.37-8.42,4.84-1.66,3.44-.83,6.56,1.74,9.22,1.33,1.38,2.84,2.57,4.22,3.89,.86,.82,1.77,1.65,2.43,2.63,1.56,2.34,.21,4.98-2.61,5.17-.78,.05-1.59-.08-2.36-.27-2.48-.63-4.47-2.09-6.23-3.88-.44-.44-.74-1.02-1.18-1.65-1.33,1.58-2.36,2.8-3.58,4.26ZM413,51.17h-25.51v5h9.98v25.28h5.5v-25.34h10.03v-4.94Zm280.93,112.42c-1.04,3.56-3.65,5.85-6.03,8.34,.91,1.05,1.73,1.99,2.64,3.04,4.35-3.08,7.85-6.57,9.52-11.55,.9-2.7,1.03-5.48,.31-8.25-1.01-3.92-3.79-5.85-7.8-5.47-3.25,.31-5.81,3.03-6.03,6.4-.21,3.31,1.85,6.24,4.95,7.01,.76,.19,1.54,.31,2.44,.48Zm-145.08,130.2c-2.63,.46-4.31,2.29-6.3,3.48-2.08,1.24-4.05,2.67-6.13,4.05,1.04,1.48,1.9,2.71,2.84,4.05,1.92-1.22,3.69-2.34,5.68-3.6,1.72,7.87,3.37,15.35,5.02,22.9,1.94-.44,3.56-.8,5.34-1.2-2.16-9.93-4.28-19.7-6.45-29.68Zm-96,23.16c2.04-.95,3.95-1.83,6.11-2.83,.66,7.95,1.29,15.61,1.93,23.35,1.97-.16,3.6-.29,5.41-.44-.76-9.78-1.51-19.31-2.26-28.85-.03-.38-.18-.76-.29-1.13-.02-.06-.1-.11-.17-.16-.06-.05-.14-.08-.54-.32-3.95,1.87-8.1,3.84-12.45,5.9,.79,1.56,1.49,2.95,2.26,4.48Zm-12.85-264.66c-.59,10.16-1.17,20.17-1.77,30.41,1.9,.11,3.6,.21,5.49,.32,.59-10.28,1.16-20.26,1.74-30.42-1.98-.11-3.63-.2-5.47-.31ZM232.79,322c2.42-9.98,4.78-19.71,7.19-29.61-1.86-.45-3.52-.85-5.34-1.29-2.42,9.95-4.78,19.68-7.18,29.58,1.78,.44,3.38,.83,5.34,1.31Z" fill="#15294b"/>
  <path d="M431.03,208.95c8.74-15.61,17.27-30.86,25.83-46.15h5.1c.56,21.26,1.12,42.53,1.69,63.93h-11.12c-.1-11.76-.21-23.45-.31-35.13-.15-.04-.31-.09-.46-.13-6.35,11.92-12.7,23.85-19.05,35.79h-4.12c-6.33-11.69-12.71-23.46-19.09-35.22-.17,.03-.34,.06-.51,.08-.16,11.43-.2,22.86-.19,34.59-1.93,.03-3.73,.06-5.54,.07-1.75,.01-3.51,0-5.58,0,.5-21.38,1.31-42.63,1.86-64.09,1.56,0,2.96,.01,4.37,0,1.06-.01,1.25,.88,1.63,1.53,2.78,4.85,5.53,9.72,8.29,14.58,5.33,9.38,10.65,18.76,15.98,28.13,.31,.55,.65,1.08,1.22,2.02Z" fill="#fbfbfc"/>
  <path d="M516.56,228.03c-10.92-.21-20.37-3.83-27.21-12.67-13.73-17.74-6.5-46.07,18.56-52.17,12.09-2.94,23.36-.64,32.84,7.92,5.34,4.83,8.45,11,9.52,18.08,1.38,9.19-.14,17.83-5.81,25.43-6.04,8.1-14.31,12.23-24.27,13.22-1.19,.12-2.39,.13-3.63,.19Zm22.15-32.87c-.24-1.82-.32-3.67-.74-5.44-1.9-8.05-6.51-13.87-14.57-16.31-8.2-2.49-15.76-.94-21.91,5.17-6.09,6.04-7.72,13.6-6.11,21.87,2.63,13.5,17.16,21.22,29.75,15.89,8.22-3.48,13.47-11.74,13.58-21.17Z" fill="#fcfcfd"/>
  <path d="M247.43,162.61c3.42,0,6.54,0,9.65,0,5.43,.02,10.88-.1,16.3,.11,8.04,.32,15.39,2.75,21.57,8.07,6.58,5.66,9.95,12.95,10.54,21.55,1.08,15.67-8.92,29.18-24.52,32.97-2.69,.66-5.51,1.05-8.28,1.1-7.99,.14-15.99,.05-23.98,.05-.39,0-.78-.06-1.29-.1v-63.75Zm11.42,53.32c5.03,0,9.91,.26,14.75-.05,11.76-.75,20.17-10.23,19.77-21.97-.41-11.94-9.39-20.69-21.31-20.77-3.52-.02-7.03-.05-10.55-.08-.85,0-1.71,0-2.65,0v42.87Z" fill="#fcfcfd"/>
  <path d="M377.46,226.68h-11.4v-15.04h-30.36v14.86h-11.21c-.07-.44-.21-.88-.21-1.31,.02-12.55,0-25.1,.13-37.64,.03-2.53,.44-5.1,1.01-7.58,2.26-9.79,8.32-15.78,18.26-17.63,5.41-1,10.84-.91,16.17,.48,9.64,2.5,14.95,9.04,16.81,18.57,.5,2.57,.73,5.23,.75,7.85,.08,11.59,.03,23.18,.03,34.77,0,.86,0,1.72,0,2.68Zm-11.57-24.35c.44-3.54,.26-14.83-.24-17.7-1.27-7.29-5.22-11.44-12.09-12.28-7.24-.89-14.37,1.29-16.93,10.5-.38,1.37-.67,2.82-.71,4.24-.12,4.87-.11,9.74-.14,14.6,0,.21,.17,.41,.26,.64h29.84Z" fill="#fcfdfd"/>
  <path d="M603.11,206.43c1.48,1.88,3.04,3.8,4.52,5.76,2.43,3.21,5.47,5.09,9.64,4.69,.39-.04,.78,0,1.5,0,.09,3.43,.04,6.72,.03,9.95-8.39,2.55-16.18-.25-20.66-7.32-.9-1.42-1.66-2.91-2.54-4.35-.79-1.29-1.58-2.6-2.48-3.81-1.39-1.87-3.04-3.06-5.67-2.73-2.42,.3-4.92,.06-7.72,.06,0,3.12,0,6.13,0,9.14s0,5.91,0,9.2c-1.89,.02-3.68,.04-5.48,.05-1.83,0-3.66,0-5.84,0,.1-21.29-.19-42.41,.2-63.55,.49-.09,.8-.2,1.11-.2,7.75,.07,15.51-.02,23.25,.27,5.46,.21,10.5,2.01,14.68,5.7,3.62,3.2,5.67,7.28,6.42,12.01,1.16,7.39-.29,14.19-5.21,19.96-1.63,1.91-3.77,3.39-5.78,5.16Zm-23.12-32.68v24.78c3.6,0,7.04,.2,10.46-.04,7.4-.53,11.56-4.73,11.78-11.93,.21-7.02-3.03-11.07-9.5-12.36-4.18-.83-8.41-.42-12.73-.45Z" fill="#fcfcfd"/>
  <path d="M649.5,191.72h27.1v10.04h-27.12v15.01c9.87,.24,19.75,.02,29.81,.13v10.3h-41.19v-63.61h41.45c.08,3.37,.01,6.69,.04,10.3-10.04,.41-19.99-.21-30.08,0v17.81Z" fill="#fbfbfc"/>
  <path d="M218.91,162.66h11.26c.06,.63,.16,1.17,.15,1.7-.02,12.39,0,24.78-.11,37.17-.03,4.01-.73,7.95-2.26,11.7-2.8,6.84-7.84,11.19-14.92,13.09-6.45,1.73-12.99,1.74-19.42-.09-7.75-2.21-12.74-7.34-15.1-15.03-1.08-3.54-1.51-7.18-1.5-10.88,.02-12.23,.05-24.46,.08-36.69,0-.24,.04-.47,.06-.7,1.63-.49,8.24-.59,11.35-.15,0,.82,0,1.67,0,2.53-.05,11.43-.18,22.85-.1,34.28,.02,2.76,.38,5.6,1.12,8.26,1.5,5.42,5.36,8.43,10.91,8.97,2.51,.24,5.13,.17,7.61-.27,5.12-.9,8.28-4.19,9.83-9.08,.95-3.01,1.04-6.13,1.05-9.25,0-11.03,0-22.06,0-33.09,0-.78,0-1.56,0-2.47Z" fill="#fcfcfc"/>
  <path d="M155.82,175.85c-4.28-1.2-8.21-2.54-12.25-3.37-4.68-.96-9.39-.57-13.95,.98-7.67,2.6-12.44,7.85-14.24,15.74-2.16,9.47,1.73,19.03,9.69,23.92,4.6,2.83,9.65,3.7,14.95,3.4,5.08-.29,9.96-1.41,14.61-3.48,.5-.22,1.02-.39,1.72-.66,1.15,3.22,2.26,6.35,3.41,9.56-3.41,2.12-7.02,3.32-10.76,4.17-9.47,2.14-18.76,1.65-27.68-2.34-11.95-5.34-18.99-17-18.75-30.09,.3-16.26,13.02-30.03,29.72-32.05,8.27-1,16.24,.27,23.96,3.3,1.09,.43,2.13,1.01,3.36,1.6-1.32,3.26-2.57,6.34-3.78,9.33Z" fill="#fcfcfc"/>
  <path d="M49.17,211.09c3.25,1.43,6.18,2.88,9.22,4.01,3.4,1.26,6.99,1.79,10.61,1.23,1.7-.26,3.48-.74,4.97-1.57,4.44-2.46,4.97-8.37,.9-11.4-2.4-1.78-5.24-3.01-7.97-4.3-3.17-1.5-6.46-2.75-9.64-4.22-1.22-.56-2.35-1.36-3.45-2.15-8.38-6.05-7.86-15.59-4.51-21.56,2.84-5.05,7.28-8.03,12.83-9.23,8.2-1.77,16.03-.33,23.5,3.33,.13,.06,.2,.24,.49,.6-1.14,3.11-2.32,6.37-3.46,9.48-3.36-1.18-6.45-2.41-9.64-3.35-2.62-.77-5.34-.94-8.06-.27-2,.49-3.73,1.4-4.96,3.11-2.41,3.34-1.97,7.34,1.37,9.73,1.99,1.42,4.27,2.47,6.51,3.51,3.04,1.41,6.23,2.5,9.22,4,2.2,1.1,4.26,2.52,6.24,4,8.77,6.56,7.81,22.41-2.84,27.99-5.3,2.78-10.95,3.34-16.76,3-6.08-.37-11.72-2.28-17.04-5.21-.41-.22-.78-.52-1.31-.87,1.28-3.32,2.53-6.58,3.79-9.85Z" fill="#fcfcfc"/>
  <path d="M701.92,222.19c1.27-3.27,2.54-6.53,3.85-9.9,1.57,.85,2.93,1.66,4.36,2.35,4.9,2.4,10.02,3.75,15.53,3.15,1.93-.21,3.75-.78,5.35-1.93,3.91-2.8,4.21-8.13,.4-11.05-2.06-1.58-4.49-2.73-6.87-3.84-2.6-1.22-5.36-2.08-7.96-3.3-2.09-.98-4.13-2.11-6.03-3.41-9.44-6.47-8.2-18.04-3.04-24.27,3.79-4.58,8.84-6.77,14.62-7.29,6.66-.59,13.05,.66,19.12,3.47,.43,.2,.81,.49,1.43,.86-1.19,3.28-2.38,6.55-3.56,9.8-2.72-1.06-5.27-2.19-7.9-3.03-3.22-1.04-6.55-1.51-9.92-.65-2.71,.69-4.79,2.14-5.77,4.89-1.11,3.1-.53,5.76,2.09,7.71,1.78,1.32,3.8,2.35,5.81,3.29,2.89,1.35,5.92,2.41,8.83,3.73,3.36,1.53,6.5,3.42,9.13,6.08,3.39,3.42,4.56,7.64,4.3,12.28-.56,10.15-7.12,14.85-14.69,16.54-10.14,2.27-19.66,.26-28.57-4.9-.13-.07-.2-.24-.49-.6Z" fill="#fbfcfc"/>
  <path d="M578.81,296.81c.08-8.96,7.67-15.93,17.23-15.89,8.61,.04,15.26,6.75,15.34,15.95,.07,8.78-7.81,15.93-17.07,15.83-8.66-.09-15.56-7.17-15.49-15.89Zm16.47,10.84c5.67,.02,10.3-4.63,10.33-10.38,.03-6.06-4.71-11.22-10.38-11.3-5.84-.08-10.59,4.56-10.6,10.35,0,6.12,4.87,11.3,10.65,11.33Z" fill="#f8f9fa"/>
  <path d="M549.88,91.15c.31-1.48,.63-3.03,1.02-4.89-2.72-.6-5.39-1.18-8.22-1.81,.32-1.67,.6-3.13,.92-4.77,4.52,.9,8.87,1.77,13.36,2.67-.09,.75-.12,1.36-.23,1.95-.63,3.21-1.32,6.41-1.9,9.62-.18,1.01-.66,1.54-1.61,1.82-6.67,1.91-13.04,1.29-18.74-2.79-5.44-3.9-7.24-9.48-5.81-15.87,1.47-6.57,5.91-10.52,12.44-11.81,6.17-1.22,11.61,.84,16.8,4.49-.97,1.47-1.83,2.79-2.77,4.22-.77-.45-1.43-.83-2.1-1.22-2.52-1.48-5.16-2.48-8.14-2.49-5.73-.01-9.8,3.37-10.67,8.96-.8,5.13,2.14,9.8,7.25,11.52,2.61,.88,5.69,1.04,8.38,.39Z" fill="#f8f9fa"/>
  <path d="M340.24,64.64c.35,6.51,.68,12.5,1.01,18.69h-5.47c-.56-9.95-1.12-19.96-1.69-29.97,1.1-.83,1.88-.4,2.74,.4,5.6,5.24,11.22,10.45,16.85,15.67,.51,.47,1.06,.89,1.89,1.58-.35-6.5-.68-12.59-1.03-18.98,1.9-.09,3.6-.18,5.45-.27,.57,10.24,1.14,20.26,1.7,30.34-1.23,.75-1.97-.05-2.72-.73-3.99-3.57-7.97-7.14-11.96-10.71-2.12-1.9-4.26-3.78-6.77-6.02Z" fill="#f9f9fa"/>
  <path d="M498.73,88.27c-1.65,.34-2.15-.71-2.78-1.5-4.42-5.58-8.82-11.17-13.23-16.75-.59-.75-1.19-1.49-2.12-2.65-.78,6.38-1.5,12.32-2.25,18.47-1.8-.2-3.43-.38-5.41-.6,1.19-10.18,2.38-20.27,3.55-30.26,1.57-.29,2.18,.51,2.83,1.37,4.57,6.06,9.17,12.11,13.77,18.15,.37,.48,.79,.92,1.49,1.72,.78-6.46,1.5-12.51,2.26-18.8,1.79,.19,3.43,.36,5.42,.57-1.19,10.15-2.36,20.18-3.54,30.28Z" fill="#f8f9fa"/>
  <path d="M289.05,332.7c-1.58,.27-2-.69-2.55-1.46-4.21-5.83-8.42-11.65-12.63-17.48-.55-.77-1.12-1.53-2-2.73-1.05,6.38-2.03,12.28-3.03,18.36-1.83-.29-3.46-.55-5.39-.86,1.62-10.06,3.23-20.03,4.83-29.93,1.58-.54,2.16,.45,2.8,1.38,3.4,4.93,6.8,9.86,10.21,14.79,1.26,1.82,2.54,3.63,4.12,5.88,1.09-6.59,2.09-12.67,3.11-18.9,1.82,.29,3.45,.55,5.38,.85-1.63,10.1-3.23,20.06-4.85,30.09Z" fill="#f8f9fa"/>
  <path d="M277.98,59.3c1.89-.24,3.53-.45,5.41-.69,.41,3.02,.81,5.92,1.18,8.82,.37,2.85,.7,5.7,1.1,8.54,.14,1.02,.37,2.05,.7,3.02,1.11,3.28,3.28,4.72,6.74,4.48,.87-.06,1.74-.24,2.58-.49,2.65-.81,4.2-2.65,4.34-5.39,.1-1.89-.1-3.82-.32-5.71-.54-4.67-1.17-9.34-1.76-14-.04-.31-.04-.62-.07-1.13,1.75-.23,3.44-.46,5.31-.71,.54,4.08,1.09,7.93,1.55,11.79,.36,3.01,.82,6.02,.87,9.04,.1,5.56-2.86,9.39-8.2,10.95-2.63,.77-5.29,1.08-8.04,.54-3.57-.7-6.11-2.7-7.59-5.95-.65-1.44-1.15-3-1.37-4.56-.87-6.07-1.6-12.16-2.43-18.54Z" fill="#f7f8f9"/>
  <path d="M372.85,309.47h19.7v4.94h-14.22v8.39h12.64v4.87h-12.89v7.17h14.03v5.16c-6.53-.13-13.02-.25-19.79-.38,.18-10.14,.36-20.16,.54-30.15Z" fill="#f8f9fa"/>
  <path d="M506.15,320.69c-2.29,1.36-4.73,1.8-7.37,1.32-2.74-.5-4.69-2.02-5.83-4.49-3.22-6.99-.48-14.35,8.28-15.68,6.02-.92,10.97,2.48,12.31,8.42,1.39,6.17,.11,11.73-3.96,16.6-2.37,2.84-5.15,5.23-8.29,7.61-1.22-1.41-2.4-2.77-3.69-4.26,3.46-2.67,7.09-5.07,9.14-9.03,.1-.04,.16-.1,.19-.2,.14-.32,.28-.65,.42-.97-.17,.05-.34,.1-.51,.15-.23,.18-.45,.36-.68,.53Zm-3.41-3.23c3-.04,5.05-2.14,5.05-5.16,0-3.3-2.22-5.77-5.13-5.69-2.99,.08-5.06,2.21-5.05,5.2,0,3.36,2.13,5.69,5.13,5.65Z" fill="#f8f9fa"/>
  <path d="M228.66,68.32c4.69-.74,8.99-1.74,13.33-2.01,5.01-.3,8.62,2.8,9.89,7.67,1.38,5.29-.24,9.53-4.88,11.96-1.95,1.02-4.17,1.53-6.27,2.24-.65,.22-1.33,.37-2.08,.56,.59,2.9,1.14,5.6,1.72,8.46-1.74,.39-3.35,.75-5.28,1.18-2.22-9.89-4.26-19.73-6.44-30.07Zm8.94,15.49c1.7-.38,3.17-.67,4.62-1.04,.53-.14,1.04-.4,1.52-.68,2.16-1.24,2.98-3.08,2.57-5.66-.45-2.78-1.88-4.56-4.16-4.93-2.42-.4-4.68,.26-7.01,1.01,.84,3.87,1.64,7.51,2.46,11.3Z" fill="#f7f8f9"/>
  <path d="M347.65,309.94c-.89,1.7-1.59,3.03-2.33,4.44-1.56-.61-3.02-1.22-4.51-1.74-2.22-.77-4.49-1.07-6.84-.62-5.67,1.1-9.1,5.42-8.77,11.08,.31,5.33,4.43,9.36,10,9.82,2.99,.25,5.87-.26,8.96-1.25,.45,1.6,.88,3.09,1.35,4.77-5.81,2.36-11.45,2.39-17.09,0-2.47-1.05-4.55-2.65-6.16-4.81-5.56-7.45-3.29-18.25,4.89-22.79,6.95-3.86,13.66-2.38,20.5,1.11Z" fill="#f7f8f9"/>
  <path d="M180.22,303.98c1.23-1.46,2.25-2.68,3.58-4.26,.44,.63,.74,1.21,1.18,1.65,1.76,1.79,3.75,3.25,6.23,3.88,.76,.19,1.58,.33,2.36,.27,2.82-.19,4.17-2.83,2.61-5.17-.65-.98-1.57-1.8-2.43-2.63-1.38-1.32-2.9-2.52-4.22-3.89-2.57-2.67-3.4-5.79-1.74-9.22,1.67-3.47,4.72-5.01,8.42-4.84,4.32,.19,7.93,2.17,11.03,5.4-1.03,1.32-2,2.55-3.11,3.97-.67-.58-1.24-1.09-1.83-1.57-1.63-1.31-3.31-2.52-5.48-2.77-1.78-.2-3.1,.44-3.86,1.8-.85,1.51-.36,2.81,.67,3.94,.85,.95,1.87,1.74,2.76,2.65,1.57,1.59,3.27,3.08,4.61,4.84,3.83,5.02-.16,12.68-6.41,12.8-5.87,.11-10.38-2.53-14.36-6.84Z" fill="#f7f8f9"/>
  <path d="M413,51.17v4.94h-10.03v25.34h-5.5v-25.28h-9.98v-5h25.51Z" fill="#f8f8f9"/>
  <path d="M693.93,163.59c-.9-.18-1.68-.29-2.44-.48-3.1-.78-5.16-3.7-4.95-7.01,.21-3.37,2.78-6.09,6.03-6.4,4.01-.38,6.78,1.56,7.8,5.47,.72,2.78,.59,5.55-.31,8.25-1.66,4.99-5.16,8.47-9.52,11.55-.91-1.05-1.73-2-2.64-3.04,2.38-2.49,4.99-4.77,6.03-8.34Z" fill="#f9f9fa"/>
  <path d="M548.85,293.79c2.17,9.98,4.29,19.75,6.45,29.68-1.78,.4-3.39,.76-5.34,1.2-1.65-7.55-3.3-15.03-5.02-22.9-1.99,1.26-3.76,2.39-5.68,3.6-.94-1.34-1.8-2.56-2.84-4.05,2.08-1.38,4.05-2.81,6.13-4.05,1.99-1.19,3.67-3.02,6.3-3.48Z" fill="#f8f8f9"/>
  <path d="M452.84,316.95c-.77-1.53-1.47-2.92-2.26-4.48,4.34-2.06,8.5-4.03,12.45-5.9,.41,.24,.48,.27,.54,.32,.06,.05,.15,.1,.17,.16,.11,.38,.26,.75,.29,1.13,.75,9.53,1.5,19.06,2.26,28.85-1.81,.15-3.44,.28-5.41,.44-.64-7.75-1.27-15.4-1.93-23.35-2.16,1-4.07,1.89-6.11,2.83Z" fill="#f8f8f9"/>
  <path d="M439.99,52.29c1.84,.1,3.49,.2,5.47,.31-.58,10.16-1.15,20.14-1.74,30.42-1.89-.11-3.59-.21-5.49-.32,.6-10.24,1.18-20.24,1.77-30.41Z" fill="#f6f6f8"/>
  <path d="M232.79,322c-1.96-.48-3.56-.88-5.34-1.31,2.4-9.9,4.76-19.63,7.18-29.58,1.82,.44,3.49,.84,5.34,1.29-2.4,9.9-4.76,19.63-7.19,29.61Z" fill="#f7f8f9"/>
  <path d="M538.71,195.16c-.11,9.43-5.36,17.69-13.58,21.17-12.58,5.33-27.11-2.39-29.75-15.89-1.61-8.27,.02-15.82,6.11-21.87,6.15-6.11,13.72-7.65,21.91-5.17,8.06,2.44,12.67,8.27,14.57,16.31,.42,1.77,.5,3.62,.74,5.44Z" fill="#15294c"/>
  <path d="M258.85,215.93v-42.87c.95,0,1.8,0,2.65,0,3.52,.02,7.03,.06,10.55,.08,11.92,.08,20.9,8.83,21.31,20.77,.4,11.74-8,21.21-19.77,21.97-4.84,.31-9.72,.05-14.75,.05Z" fill="#16294c"/>
  <path d="M365.89,202.33h-29.84c-.1-.23-.26-.44-.26-.64,.02-4.87,.02-9.74,.14-14.6,.04-1.42,.33-2.86,.71-4.24,2.56-9.21,9.69-11.39,16.93-10.5,6.87,.84,10.82,4.99,12.09,12.28,.5,2.86,.68,14.15,.24,17.7Z" fill="#162a4d"/>
  <path d="M579.99,173.75c4.32,.03,8.56-.38,12.73,.45,6.47,1.29,9.71,5.34,9.5,12.36-.21,7.2-4.38,11.4-11.78,11.93-3.41,.24-6.86,.04-10.46,.04v-24.78Z" fill="#172b4e"/>
  <path d="M595.28,307.65c-5.78-.02-10.66-5.21-10.65-11.33,0-5.79,4.76-10.43,10.6-10.35,5.67,.07,10.41,5.24,10.38,11.3-.03,5.75-4.66,10.4-10.33,10.38Z" fill="#172b4e"/>
  <path d="M502.74,317.45c-3,.04-5.13-2.29-5.13-5.65,0-2.99,2.06-5.12,5.05-5.2,2.91-.08,5.14,2.39,5.13,5.69,0,3.03-2.05,5.12-5.05,5.16Z" fill="#1b2e50"/>
  <path d="M506.83,320.15c.17-.05,.34-.1,.51-.15-.14,.32-.28,.65-.42,.97-.03-.27-.06-.55-.09-.82Z" fill="#7a8498"/>
  <path d="M506.83,320.15c.03,.27,.06,.55,.09,.82-.03,.1-.09,.17-.19,.2-.19-.16-.39-.33-.58-.49,.23-.18,.45-.36,.68-.53Z" fill="#15294b"/>
  <path d="M237.59,83.81c-.83-3.79-1.62-7.43-2.46-11.3,2.33-.75,4.59-1.4,7.01-1.01,2.27,.37,3.71,2.15,4.16,4.93,.41,2.58-.41,4.41-2.57,5.66-.48,.28-.99,.55-1.52,.68-1.45,.37-2.92,.66-4.62,1.04Z" fill="#192d4f"/>
</svg>